<?xml version="1.0" encoding="UTF-8"?><svg xmlns="http://www.w3.org/2000/svg" xmlns:xlink="http://www.w3.org/1999/xlink" width="375" zoomAndPan="magnify" viewBox="0 0 375 374.999991" height="374.999991" preserveAspectRatio="xMidYMid meet" version="1.0"><path fill="rgb(100%, 100%, 100%)" d="M 131.34375 43.167969 C 180.019531 43.167969 219.476562 82.617188 219.476562 131.269531 C 219.476562 179.957031 180.019531 219.433594 131.34375 219.433594 C 82.671875 219.433594 43.222656 179.964844 43.222656 131.269531 C 43.222656 82.617188 82.671875 43.167969 131.34375 43.167969 M 131.34375 0 C 58.957031 0 0.0546875 58.902344 0.0546875 131.269531 C 0.0546875 203.6875 58.957031 262.558594 131.34375 262.558594 C 203.738281 262.558594 262.621094 203.679688 262.621094 131.269531 C 262.621094 58.902344 203.738281 0 131.34375 0 Z M 131.34375 0 " fill-opacity="1" fill-rule="nonzero"/><path fill="rgb(100%, 100%, 100%)" d="M 335.464844 374.964844 C 326.242188 374.964844 317.070312 371.464844 310.035156 364.429688 L 246.191406 300.570312 C 232.128906 286.53125 232.128906 263.796875 246.191406 249.703125 C 260.25 235.664062 282.996094 235.664062 297.054688 249.703125 L 360.898438 313.574219 C 374.957031 327.625 374.957031 350.378906 360.898438 364.429688 C 353.875 371.464844 344.695312 374.964844 335.464844 374.964844 Z M 335.464844 374.964844 " fill-opacity="1" fill-rule="nonzero"/><path fill="rgb(100%, 100%, 100%)" d="M 232.90625 205.949219 L 267.988281 241.011719 L 237.46875 271.546875 L 202.386719 236.484375 Z M 232.90625 205.949219 " fill-opacity="1" fill-rule="nonzero"/></svg>